<svg xmlns="http://www.w3.org/2000/svg" width="45" height="48" viewBox="0 0 45 48"><defs><style>.a,.b{fill:#fff;}.a{opacity:0;}</style></defs><g transform="translate(0 0)"><rect class="a" width="45" height="48" transform="translate(45 48) rotate(180)"/><path class="b" d="M33.277,6.387a4.052,4.052,0,0,0-4.264.5l-9.146,7.564v-5a3.4,3.4,0,0,0-2.026-3.068,4.052,4.052,0,0,0-4.264.5L3.736,15.012a3.28,3.28,0,0,0,0,5.133l9.841,8.123a3.975,3.975,0,0,0,2.508.888,4.3,4.3,0,0,0,1.756-.386A3.4,3.4,0,0,0,19.867,25.7v-5l9.146,7.564a3.975,3.975,0,0,0,2.508.888,4.3,4.3,0,0,0,1.756-.386A3.4,3.4,0,0,0,35.3,25.7V9.455A3.4,3.4,0,0,0,33.277,6.387Z" transform="translate(2.323 7.358)"/></g></svg>