<svg xmlns="http://www.w3.org/2000/svg" width="46" height="47" viewBox="0 0 46 47"><defs><style>.a,.b{fill:#fff;}.a{opacity:0;}</style></defs><g transform="translate(0 0)"><rect class="a" width="46" height="47"/><path class="b" d="M36.021,15.012,26.18,6.889a4.052,4.052,0,0,0-4.264-.5A3.4,3.4,0,0,0,19.89,9.455v5L10.744,6.889a4.052,4.052,0,0,0-4.264-.5A3.4,3.4,0,0,0,4.55,9.455V25.7A3.4,3.4,0,0,0,6.48,28.77a4.3,4.3,0,0,0,1.756.386,3.975,3.975,0,0,0,2.508-.888L19.89,20.7v5a3.4,3.4,0,0,0,2.026,3.068,4.3,4.3,0,0,0,1.756.386,3.975,3.975,0,0,0,2.508-.888l9.841-8.123a3.28,3.28,0,0,0,0-5.133Z" transform="translate(3.606 6.358)"/></g></svg>