<svg xmlns="http://www.w3.org/2000/svg" width="30" height="30" viewBox="0 0 30 30"><defs><style>.a,.b{fill:#fff;}.a{opacity:0;}</style></defs><g transform="translate(-0.213)"><g transform="translate(0)"><rect class="a" width="30" height="30" transform="translate(0.213)"/><path class="b" d="M24.727,16.106a1.256,1.256,0,0,0-1.57.816A8.967,8.967,0,0,1,14.529,23.1,8.917,8.917,0,0,1,5.512,14.31a8.917,8.917,0,0,1,9.017-8.791,9.118,9.118,0,0,1,5.84,2.1l-2.725-.452a1.259,1.259,0,1,0-.4,2.487l5.325.879h.214a1.256,1.256,0,0,0,.427-.075.415.415,0,0,0,.126-.075.98.98,0,0,0,.251-.138L23.7,10.1c0-.063.113-.113.163-.188s0-.126.063-.176a1.682,1.682,0,0,0,.088-.226l.942-5.024a1.278,1.278,0,0,0-2.512-.477L22.1,5.833a11.567,11.567,0,0,0-7.573-2.826A11.429,11.429,0,0,0,3,14.31a11.429,11.429,0,0,0,11.529,11.3,11.454,11.454,0,0,0,11.077-7.937,1.256,1.256,0,0,0-.879-1.57Z" transform="translate(1.336 0.76)"/></g></g></svg>