<svg xmlns="http://www.w3.org/2000/svg" width="30" height="30" viewBox="0 0 30 30"><defs><style>.a,.b{fill:#fff;}.a{opacity:0;}</style></defs><g transform="translate(0)"><g transform="translate(0)"><rect class="a" width="30" height="30" transform="translate(0)"/><path class="b" d="M21.855,5.769H6.784l1.633-1.62A1.261,1.261,0,0,0,6.633,2.365L2.866,6.133a1.256,1.256,0,0,0,0,1.783l3.768,3.768A1.261,1.261,0,1,0,8.417,9.9L6.784,8.28H21.855a1.959,1.959,0,0,1,2,1.922v3.1a1.256,1.256,0,1,0,2.512,0V10.2a4.471,4.471,0,0,0-4.509-4.433Z" transform="translate(0.571 0.511)"/><path class="b" d="M22.23,14.876a1.261,1.261,0,0,0-1.783,1.783l1.633,1.62H7.009a1.959,1.959,0,0,1-2-1.922v-3.1a1.256,1.256,0,0,0-2.512,0v3.1a4.471,4.471,0,0,0,4.509,4.433H22.079l-1.633,1.62a1.261,1.261,0,1,0,1.783,1.783L26,20.427a1.256,1.256,0,0,0,0-1.783Z" transform="translate(0.572 3.071)"/></g></g></svg>