<svg xmlns="http://www.w3.org/2000/svg" width="80.175" height="80.175" viewBox="0 0 80.175 80.175"><defs><style>.a{fill:#fff;}</style></defs><g transform="translate(0)"><g transform="translate(0)"><path class="a" d="M80.175,40.087A40.088,40.088,0,1,0,40.088,80.175,40.088,40.088,0,0,0,80.175,40.087Zm-76.531,0A36.443,36.443,0,1,1,40.088,76.531,36.442,36.442,0,0,1,3.644,40.087Z"/><path class="a" d="M236.128,176.069V152.932h7.635l1.206-7.668h-8.841v-3.845c0-2,.656-3.91,3.528-3.91h5.74v-7.653h-8.149c-6.851,0-8.721,4.512-8.721,10.765v4.639h-4.7v7.671h4.7v23.138Z" transform="translate(-194.503 -112.844)"/></g></g></svg>