<svg xmlns="http://www.w3.org/2000/svg" width="84" height="84" viewBox="0 0 84 84"><defs><style>.a{fill:#fff;}.b{fill:none;stroke:#fff;stroke-width:4px;}</style></defs><g transform="translate(2 2)"><path class="a" d="M222.313,214.656A7.656,7.656,0,1,1,214.656,207,7.656,7.656,0,0,1,222.313,214.656Zm0,0" transform="translate(-174.656 -174.656)"/><path class="a" d="M172.221,140.772a7.606,7.606,0,0,0-4.359-4.359,12.708,12.708,0,0,0-4.265-.79c-2.422-.11-3.149-.134-9.282-.134s-6.86.023-9.282.134a12.716,12.716,0,0,0-4.265.791,7.609,7.609,0,0,0-4.36,4.359,12.713,12.713,0,0,0-.79,4.265c-.11,2.422-.134,3.148-.134,9.282s.024,6.859.134,9.282a12.708,12.708,0,0,0,.79,4.265,7.606,7.606,0,0,0,4.359,4.359,12.692,12.692,0,0,0,4.265.791c2.422.11,3.148.134,9.281.134s6.86-.023,9.282-.134a12.693,12.693,0,0,0,4.265-.791,7.606,7.606,0,0,0,4.359-4.359,12.72,12.72,0,0,0,.791-4.265c.11-2.422.134-3.149.134-9.282s-.023-6.86-.134-9.282A12.693,12.693,0,0,0,172.221,140.772Zm-17.905,25.341a11.794,11.794,0,1,1,11.794-11.794A11.794,11.794,0,0,1,154.315,166.113Zm12.261-21.3a2.756,2.756,0,1,1,2.756-2.756A2.756,2.756,0,0,1,166.576,144.814Zm0,0" transform="translate(-114.315 -114.319)"/><path class="b" d="M40,0A40,40,0,1,0,80,40,40,40,0,0,0,40,0ZM62.83,49.47a16.852,16.852,0,0,1-1.068,5.576,11.744,11.744,0,0,1-6.718,6.718A16.863,16.863,0,0,1,49.47,62.83c-2.449.112-3.232.139-9.47.139s-7.02-.027-9.47-.139a16.863,16.863,0,0,1-5.575-1.068,11.744,11.744,0,0,1-6.718-6.718A16.848,16.848,0,0,1,17.17,49.47c-.113-2.45-.139-3.232-.139-9.47s.026-7.02.139-9.47a16.853,16.853,0,0,1,1.067-5.576,11.752,11.752,0,0,1,6.718-6.718A16.867,16.867,0,0,1,30.53,17.17c2.449-.112,3.232-.139,9.47-.139s7.02.027,9.47.139a16.871,16.871,0,0,1,5.576,1.066,11.748,11.748,0,0,1,6.718,6.718,16.85,16.85,0,0,1,1.068,5.576c.112,2.449.138,3.232.138,9.47S62.942,47.02,62.83,49.47Zm0,0"/></g></svg>