<svg xmlns="http://www.w3.org/2000/svg" width="80.175" height="80.175" viewBox="0 0 80.175 80.175"><defs><style>.a{fill:#fff;}</style></defs><path class="a" d="M180.031,175.292c0-.4-.007-.805-.026-1.2a18.209,18.209,0,0,0,4.421-4.752,16.971,16.971,0,0,1-5.088,1.392,9.091,9.091,0,0,0,3.9-5.087,17.01,17.01,0,0,1-5.623,2.168,8.812,8.812,0,0,0-6.465-3.05,8.949,8.949,0,0,0-8.856,9.231,9.842,9.842,0,0,0,.23,2.139,24.94,24.94,0,0,1-18.258-10.087A9.935,9.935,0,0,0,147,178.7a8.477,8.477,0,0,1-4.012-1.228v.12a9.408,9.408,0,0,0,7.106,9.322,8.389,8.389,0,0,1-2.332.317,8.092,8.092,0,0,1-1.665-.182,9,9,0,0,0,8.273,6.593,17.094,17.094,0,0,1-11,4.005,16.868,16.868,0,0,1-2.114-.135,23.894,23.894,0,0,0,13.579,4.256C171.124,201.767,180.031,187.591,180.031,175.292Z" transform="translate(-122.753 -143.174)"/><path class="a" d="M80.175,40.087A40.088,40.088,0,1,0,40.088,80.175,40.088,40.088,0,0,0,80.175,40.087Zm-76.531,0A36.443,36.443,0,1,1,40.088,76.531,36.442,36.442,0,0,1,3.644,40.087Z"/></svg>