<svg xmlns="http://www.w3.org/2000/svg" width="81.243" height="81.243" viewBox="0 0 81.243 81.243"><defs><style>.a{fill:#fff;}</style></defs><path class="a" d="M224.113,223.26l13.214-7.61-13.214-7.61Zm0,0" transform="translate(-188.551 -175.028)"/><path class="a" d="M40.621,0A40.621,40.621,0,1,0,81.243,40.621,40.626,40.626,0,0,0,40.621,0ZM66,40.663s0,8.238-1.045,12.211a6.361,6.361,0,0,1-4.475,4.474c-3.973,1.046-19.863,1.046-19.863,1.046s-15.848,0-19.863-1.087a6.361,6.361,0,0,1-4.475-4.475c-1.046-3.93-1.046-12.21-1.046-12.21s0-8.238,1.046-12.21A6.49,6.49,0,0,1,20.759,23.9c3.973-1.046,19.863-1.046,19.863-1.046s15.89,0,19.863,1.087a6.361,6.361,0,0,1,4.475,4.475C66.046,32.384,66,40.663,66,40.663Zm0,0"/></svg>